<?xml version="1.0" encoding="UTF-8"?>
<svg id="Layer_1" xmlns="http://www.w3.org/2000/svg" version="1.1" viewBox="0 0 831.7 830.8">
  <!-- Generator: Adobe Illustrator 29.2.1, SVG Export Plug-In . SVG Version: 2.1.0 Build 116)  -->
  <defs>
    <style>
      .st0, .st1 {
        fill: none;
        stroke: #000;
        stroke-miterlimit: 10;
        stroke-width: 20px;
      }

      .st1 {
        stroke-linecap: round;
      }
    </style>
  </defs>
  <circle class="st0" cx="201" cy="349.3" r="176.2"/>
  <circle class="st0" cx="606.6" cy="342.2" r="190.2"/>
  <line class="st1" x1="324.7" y1="223.8" x2="455.2" y2="223.8"/>
  <line class="st1" x1="143.7" y1="649.6" x2="652.1" y2="682.8"/>
  <line class="st1" x1="143.7" y1="519.4" x2="143.7" y2="649.6"/>
  <path d="M715,502.1l-69.5,23.6v165.5c0,1.1,7.4,1.9,8.4,1.7l47.2-8.8c6.5-1.2,11.3-6.9,11.4-13.5l2.5-168.4Z"/>
  <line class="st1" x1="697.9" y1="648.2" x2="786" y2="614.7"/>
  <line class="st1" x1="789.5" y1="394.9" x2="786" y2="614.7"/>
  <ellipse cx="427" cy="687.9" rx="26.7" ry="179.6" transform="translate(-274.4 1092.3) rotate(-88.1)"/>
  <path d="M602,526.8c-135.3-2.4-270.6-4.9-405.9-7.3,1.2,12.8,3.2,27,6.3,42.2,3.1,15.3,6.9,29.2,10.8,41.5,0,.4.3,1.8,1.5,2.9.8.7,1.8,1.2,2.9,1.3l373.7,23.8c5.8.4,10.7-4.5,10.7-10.6v-93.7Z"/>
  <path d="M426.6,284.7h-59.6c5.4,18.1,19.1,72.3-5.6,133.6-32.4,80.5-106,111.7-119.8,117.2,106.2,1.8,212.4,3.5,318.7,5.3-22.4-10.7-59.8-32.5-90.3-73.1-57.8-77-46.6-162.8-43.4-183Z"/>
  <path d="M324.7,223.8c-28.1-4.8-92.9-12-167.1,16.6-71,27.4-113.4,73.2-131.4,95.3-.7,13.4-.1,35,8.2,59.9,7.9,23.7,19.6,40.8,27.9,51,4.5-15.6,26.3-85.3,96.6-124.6,102.3-57.1,208.7,4.9,213,7.5-3.7-16-9.5-35.4-19.1-56.5-9.1-20-19.2-36.4-28.3-49.2Z"/>
  <path d="M358.7,302.6c-46.3,7.6-108.1,22.8-175.7,54.5-56.2,26.4-100.4,56.7-133.1,82.8,23,21,46.1,41.9,69.1,62.9,32.2-1.3,71.1-5.7,113.9-16.7,71.1-18.2,126.2-47.4,163.7-71.5-12.6-37.3-25.2-74.7-37.9-112Z"/>
  <path d="M797.5,304.5c-22-22.4-75.3-70.5-159.9-92.3-81-20.8-148.1-6.5-178.3,2-9.2,11.7-22.5,31.7-31,59.5-8.1,26.6-8.6,49.6-7.7,64.2,101.3-52.9,213-52.2,286.5,4.8,34.5,26.7,53.9,60.7,65.1,88,6.9-16.8,14.2-38.2,19.1-63.4,4.7-23.9,6.2-45.3,6.2-62.8Z"/>
  <path d="M784.5,397.2c-48.2-21.7-115.7-46.7-199.2-61.9-69.4-12.6-130.1-14.8-177.4-13.5,6.8,35.1,13.7,70.1,20.5,105.2,31.5,15.3,72.2,31.4,121.3,42.1,82.2,18,152.8,13.2,199.5,6,11.8-25.9,23.5-51.9,35.3-77.8Z"/>
</svg>